<svg xmlns="http://www.w3.org/2000/svg" width="1400" height="900" viewBox="0 0 1400 900" role="img" aria-label="Thumbnail Server UI Mockup">
  <defs>
    <linearGradient id="bg" x1="0" y1="0" x2="1" y2="1">
      <stop offset="0%" stop-color="#11151b"/>
      <stop offset="100%" stop-color="#1b222d"/>
    </linearGradient>
    <linearGradient id="panel" x1="0" y1="0" x2="0" y2="1">
      <stop offset="0%" stop-color="#1c2531"/>
      <stop offset="100%" stop-color="#141b24"/>
    </linearGradient>
    <linearGradient id="thumb" x1="0" y1="0" x2="1" y2="1">
      <stop offset="0%" stop-color="#2d3f58"/>
      <stop offset="100%" stop-color="#1b2a3d"/>
    </linearGradient>
    <filter id="shadow" x="-20%" y="-20%" width="140%" height="140%">
      <feDropShadow dx="0" dy="10" stdDeviation="12" flood-color="#000" flood-opacity="0.45"/>
    </filter>
  </defs>

  <rect width="1400" height="900" fill="url(#bg)"/>

  <g opacity="0.07" fill="#8ad4ff">
    <circle cx="130" cy="120" r="90"/>
    <circle cx="1260" cy="170" r="130"/>
    <circle cx="300" cy="780" r="120"/>
  </g>

  <rect x="40" y="30" width="1320" height="840" rx="24" fill="url(#panel)" filter="url(#shadow)"/>

  <text x="80" y="84" fill="#e8eef7" font-size="32" font-family="Avenir Next, Helvetica Neue, sans-serif" font-weight="700">Thumbnail Server</text>
  <text x="80" y="112" fill="#9fb2c7" font-size="16" font-family="Avenir Next, Helvetica Neue, sans-serif">Studio Browser + OSC Trigger</text>

  <rect x="950" y="58" width="360" height="54" rx="14" fill="#0f1722" stroke="#2b3d53"/>
  <circle cx="985" cy="85" r="8" fill="#31d17b"/>
  <text x="1005" y="91" fill="#c9d7e7" font-size="16" font-family="Menlo, SFMono-Regular, monospace">Server online • 3000</text>

  <rect x="80" y="145" width="860" height="86" rx="16" fill="#101722" stroke="#2c3b4f"/>
  <text x="102" y="175" fill="#8ea4bc" font-size="13" font-family="Avenir Next, Helvetica Neue, sans-serif">FOLDER PATH</text>
  <text x="102" y="205" fill="#e3edf9" font-size="20" font-family="Avenir Next, Helvetica Neue, sans-serif">/Volumes/T7_Grey/Assets/Visual SurvivalKit</text>
  <rect x="760" y="167" width="160" height="44" rx="12" fill="#1f3146" stroke="#36567b"/>
  <text x="810" y="194" fill="#d9e9fb" font-size="16" font-family="Avenir Next, Helvetica Neue, sans-serif">Browse</text>

  <rect x="960" y="145" width="350" height="86" rx="16" fill="#102435" stroke="#2879a8"/>
  <text x="1025" y="198" fill="#dcf2ff" font-size="24" font-family="Avenir Next, Helvetica Neue, sans-serif" font-weight="700">Load Videos</text>

  <rect x="80" y="255" width="340" height="575" rx="18" fill="#0f1722" stroke="#2a3a4f"/>
  <text x="105" y="295" fill="#e7edf6" font-size="22" font-family="Avenir Next, Helvetica Neue, sans-serif" font-weight="600">OSC Settings</text>

  <text x="105" y="337" fill="#8ea4bc" font-size="13" font-family="Avenir Next, Helvetica Neue, sans-serif">IP ADDRESS</text>
  <rect x="105" y="346" width="290" height="48" rx="11" fill="#0a111a" stroke="#32475f"/>
  <text x="122" y="377" fill="#dce9f9" font-size="18" font-family="Menlo, SFMono-Regular, monospace">192.168.1.70</text>

  <text x="105" y="430" fill="#8ea4bc" font-size="13" font-family="Avenir Next, Helvetica Neue, sans-serif">PORT</text>
  <rect x="105" y="438" width="290" height="48" rx="11" fill="#0a111a" stroke="#32475f"/>
  <text x="122" y="469" fill="#dce9f9" font-size="18" font-family="Menlo, SFMono-Regular, monospace">8000</text>

  <text x="105" y="522" fill="#8ea4bc" font-size="13" font-family="Avenir Next, Helvetica Neue, sans-serif">ADDRESS</text>
  <rect x="105" y="530" width="290" height="48" rx="11" fill="#0a111a" stroke="#32475f"/>
  <text x="122" y="561" fill="#dce9f9" font-size="18" font-family="Menlo, SFMono-Regular, monospace">/d3/videoselect</text>

  <rect x="105" y="610" width="290" height="56" rx="14" fill="#14283a" stroke="#2d88b9"/>
  <text x="145" y="645" fill="#d9f0ff" font-size="18" font-family="Avenir Next, Helvetica Neue, sans-serif">Recursive Scan: ON</text>

  <rect x="105" y="688" width="290" height="120" rx="12" fill="#1f2f40" stroke="#3f607f"/>
  <text x="125" y="722" fill="#e8eff8" font-size="18" font-family="Avenir Next, Helvetica Neue, sans-serif">Loaded 128 videos</text>
  <text x="125" y="752" fill="#fdbe6a" font-size="16" font-family="Avenir Next, Helvetica Neue, sans-serif">3 files broken</text>
  <text x="125" y="780" fill="#a6bbd0" font-size="14" font-family="Avenir Next, Helvetica Neue, sans-serif">State saved locally</text>

  <text x="460" y="295" fill="#e7edf6" font-size="22" font-family="Avenir Next, Helvetica Neue, sans-serif" font-weight="600">Video Grid</text>

  <g transform="translate(450,315)">
    <rect width="260" height="220" rx="16" fill="#162233" stroke="#324960"/>
    <rect x="14" y="14" width="232" height="130" rx="10" fill="url(#thumb)"/>
    <rect x="14" y="157" width="54" height="24" rx="7" fill="#20344a"/>
    <text x="24" y="174" fill="#cde3f9" font-size="13" font-family="Menlo, SFMono-Regular, monospace">#12</text>
    <text x="14" y="197" fill="#e7f0fa" font-size="17" font-family="Avenir Next, Helvetica Neue, sans-serif">Sea of Dots.mov</text>
  </g>

  <g transform="translate(730,315)">
    <rect width="260" height="220" rx="16" fill="#162233" stroke="#324960"/>
    <rect x="14" y="14" width="232" height="130" rx="10" fill="url(#thumb)"/>
    <rect x="14" y="157" width="54" height="24" rx="7" fill="#20344a"/>
    <text x="24" y="174" fill="#cde3f9" font-size="13" font-family="Menlo, SFMono-Regular, monospace">#13</text>
    <text x="14" y="197" fill="#e7f0fa" font-size="17" font-family="Avenir Next, Helvetica Neue, sans-serif">Swirl Reactor.mov</text>
  </g>

  <g transform="translate(1010,315)">
    <rect width="260" height="220" rx="16" fill="#2a1b20" stroke="#c35b6f"/>
    <rect x="14" y="14" width="232" height="130" rx="10" fill="#3a242b"/>
    <line x1="90" y1="44" x2="156" y2="110" stroke="#ff7f92" stroke-width="8" stroke-linecap="round"/>
    <line x1="156" y1="44" x2="90" y2="110" stroke="#ff7f92" stroke-width="8" stroke-linecap="round"/>
    <rect x="14" y="157" width="54" height="24" rx="7" fill="#4a2d35"/>
    <text x="24" y="174" fill="#ffd9df" font-size="13" font-family="Menlo, SFMono-Regular, monospace">#14</text>
    <text x="14" y="197" fill="#ffe5e9" font-size="17" font-family="Avenir Next, Helvetica Neue, sans-serif">._Sea of Dots.mov</text>
  </g>

  <g transform="translate(450,555)">
    <rect width="260" height="220" rx="16" fill="#162233" stroke="#324960"/>
    <rect x="14" y="14" width="232" height="130" rx="10" fill="url(#thumb)"/>
    <rect x="14" y="157" width="54" height="24" rx="7" fill="#20344a"/>
    <text x="24" y="174" fill="#cde3f9" font-size="13" font-family="Menlo, SFMono-Regular, monospace">#15</text>
    <text x="14" y="197" fill="#e7f0fa" font-size="17" font-family="Avenir Next, Helvetica Neue, sans-serif">Kaleido Veil.mp4</text>
  </g>

  <g transform="translate(730,555)">
    <rect width="260" height="220" rx="16" fill="#162233" stroke="#324960"/>
    <rect x="14" y="14" width="232" height="130" rx="10" fill="url(#thumb)"/>
    <rect x="14" y="157" width="54" height="24" rx="7" fill="#20344a"/>
    <text x="24" y="174" fill="#cde3f9" font-size="13" font-family="Menlo, SFMono-Regular, monospace">#16</text>
    <text x="14" y="197" fill="#e7f0fa" font-size="17" font-family="Avenir Next, Helvetica Neue, sans-serif">Neon Field.webm</text>
  </g>

  <g transform="translate(1010,555)">
    <rect width="260" height="220" rx="16" fill="#162233" stroke="#324960"/>
    <rect x="14" y="14" width="232" height="130" rx="10" fill="url(#thumb)"/>
    <rect x="14" y="157" width="54" height="24" rx="7" fill="#20344a"/>
    <text x="24" y="174" fill="#cde3f9" font-size="13" font-family="Menlo, SFMono-Regular, monospace">#17</text>
    <text x="14" y="197" fill="#e7f0fa" font-size="17" font-family="Avenir Next, Helvetica Neue, sans-serif">Flux Garden.mkv</text>
  </g>
</svg>
